<?xml version="1.0" encoding="UTF-8"?>
<svg id="Capa_2" data-name="Capa 2" xmlns="http://www.w3.org/2000/svg" xmlns:xlink="http://www.w3.org/1999/xlink" viewBox="0 0 205.84 194.53">
  <defs>
    <style>
      .cls-1 {
        fill: #675aa6;
      }

      .cls-2 {
        fill: #fff;
      }

      .cls-3 {
        filter: url(#drop-shadow-1);
      }

      .cls-4 {
        fill: #564896;
      }

      .cls-5 {
        fill: #26213d;
      }

      .cls-6 {
        fill: #ffc209;
      }

      .cls-7 {
        fill: #00e0ac;
      }
    </style>
    <filter id="drop-shadow-1" filterUnits="userSpaceOnUse">
      <feOffset dx="10" dy="10"/>
      <feGaussianBlur result="blur" stdDeviation="0"/>
      <feFlood flood-color="#000" flood-opacity=".18"/>
      <feComposite in2="blur" operator="in"/>
      <feComposite in="SourceGraphic"/>
    </filter>
  </defs>
  <g id="OBJECTS">
    <g class="cls-3">
      <g>
        <path class="cls-1" d="m49.84,30.65L8.3,102.59c-23.59,40.86,5.9,91.94,53.08,91.94h83.07c47.18,0,76.67-51.08,53.08-91.94l-41.54-71.94c-23.59-40.86-82.57-40.86-106.16,0Z"/>
        <path class="cls-4" d="m156,30.65c-.82-1.42-1.68-2.78-2.58-4.1-14.24,34.06-53.99,104.06-147.45,132.86,9.57,20.18,29.9,35.11,55.41,35.11h83.07c47.18,0,76.67-51.08,53.08-91.94l-41.54-71.94Z"/>
      </g>
      <circle class="cls-5" cx="102.92" cy="109.36" r="39.07" transform="translate(-47.19 104.81) rotate(-45)"/>
      <g>
        <g>
          <circle class="cls-2" cx="102.92" cy="63.95" r="14.89"/>
          <path class="cls-2" d="m61.73,79.12c-2.29,0-4.61-.58-6.74-1.81-6.46-3.73-8.67-11.98-4.94-18.44l11.2-19.39c8.7-15.06,24.27-24.06,41.67-24.06s32.97,8.99,41.67,24.06l11.2,19.39c3.73,6.46,1.52,14.71-4.94,18.44-6.46,3.73-14.71,1.52-18.44-4.94l-11.2-19.39c-3.82-6.61-10.65-10.56-18.28-10.56s-14.47,3.95-18.28,10.56l-11.2,19.39c-2.5,4.33-7.04,6.75-11.7,6.75Z"/>
        </g>
        <g>
          <path class="cls-7" d="m56.24,119.01c7.12-4.11,16.23-1.67,20.34,5.45,4.11,7.12,1.67,16.23-5.45,20.34-7.12,4.11-16.23,1.67-20.34-5.45-4.11-7.12-1.67-16.23,5.45-20.34Z"/>
          <path class="cls-7" d="m85.71,180.23h-22.39c-17.39,0-32.97-8.99-41.67-24.06-8.7-15.06-8.7-33.05,0-48.11l11.2-19.39c3.73-6.46,11.98-8.67,18.44-4.94,6.46,3.73,8.67,11.98,4.94,18.44l-11.2,19.39c-3.82,6.61-3.82,14.5,0,21.11,3.82,6.61,10.65,10.56,18.28,10.56h22.39c7.46,0,13.5,6.04,13.5,13.5s-6.04,13.5-13.5,13.5Z"/>
        </g>
        <g>
          <path class="cls-6" d="m134.71,144.8c-7.12-4.11-9.56-13.22-5.45-20.34,4.11-7.12,13.22-9.56,20.34-5.45,7.12,4.11,9.56,13.22,5.45,20.34-4.11,7.12-13.22,9.56-20.34,5.45Z"/>
          <path class="cls-6" d="m142.52,180.23h-22.39c-7.46,0-13.5-6.04-13.5-13.5s6.04-13.5,13.5-13.5h22.39c7.63,0,14.47-3.95,18.28-10.56,3.82-6.61,3.82-14.5,0-21.11l-11.2-19.39c-3.73-6.46-1.52-14.71,4.94-18.44,6.46-3.73,14.71-1.52,18.44,4.94l11.2,19.39c8.7,15.06,8.7,33.05,0,48.11-8.7,15.06-24.27,24.06-41.67,24.06Z"/>
        </g>
      </g>
    </g>
  </g>
</svg>